<?xml version="1.0" standalone="no"?>
<!DOCTYPE svg PUBLIC "-//W3C//DTD SVG 20010904//EN"
 "http://www.w3.org/TR/2001/REC-SVG-20010904/DTD/svg10.dtd">
<svg version="1.0" xmlns="http://www.w3.org/2000/svg"
 width="361.000000pt" height="361.000000pt" viewBox="0 0 361.000000 361.000000"
 preserveAspectRatio="xMidYMid meet">
<metadata>
Created by potrace 1.11, written by Peter Selinger 2001-2013
</metadata>
<g transform="translate(0.000000,361.000000) scale(0.100000,-0.100000)"
fill="#000000" stroke="none">
<path d="M0 2315 c0 -1029 3 -1295 13 -1296 6 -1 42 -2 80 -4 74 -2 80 -5 71
-29 -6 -16 -32 -19 -126 -18 -34 1 -38 -1 -38 -24 l0 -25 80 5 c88 6 81 12 84
-61 1 -17 1 -17 -131 -22 -26 -1 -33 -5 -33 -21 0 -19 6 -20 78 -19 42 1 82 1
89 0 13 -1 38 -79 29 -88 -3 -3 -49 -5 -101 -4 l-96 1 3 -27 c3 -27 4 -27 78
-28 41 0 84 3 96 7 11 3 26 3 32 -1 8 -5 52 -93 52 -104 0 -1 -58 -1 -130 1
l-130 3 0 -23 c0 -24 1 -24 123 -26 67 -1 130 -4 139 -5 14 -3 68 -84 68 -103
0 -2 -74 -2 -165 1 l-165 6 0 -25 c0 -17 6 -25 18 -25 15 1 316 -9 334 -10 8
-1 55 -71 64 -95 4 -10 -28 -13 -148 -14 -288 -1 -268 0 -268 -22 0 -19 6 -20
226 -17 l227 2 33 -44 c19 -24 33 -46 31 -47 -2 -2 -119 -4 -260 -4 l-257 -1
0 -24 0 -24 281 0 281 1 32 -31 c25 -25 41 -31 74 -31 23 0 42 4 42 10 0 15
-33 50 -42 44 -4 -3 -8 0 -8 6 0 16 -57 97 -93 131 -16 16 -27 29 -23 29 8 0
-32 52 -89 115 -20 22 -60 89 -90 150 -74 150 -119 283 -73 213 9 -13 42 -55
74 -94 33 -39 82 -99 109 -133 28 -35 57 -70 66 -79 9 -10 30 -37 47 -62 17
-25 44 -60 61 -78 17 -18 31 -36 31 -40 0 -4 17 -26 38 -49 20 -24 57 -70 81
-103 40 -54 48 -60 80 -60 32 1 34 2 19 14 -10 7 -18 18 -18 24 0 6 -3 12 -7
14 -8 3 -30 29 -88 103 -16 21 -36 44 -43 51 -6 7 -12 17 -12 21 0 5 -14 22
-31 39 -17 16 -43 48 -59 72 -28 42 -94 123 -137 169 -13 13 -23 26 -23 29 0
3 -6 11 -12 19 -7 7 -22 25 -33 41 -42 60 -143 181 -179 215 -30 29 -47 159
-26 199 10 18 13 16 48 -22 20 -23 45 -50 54 -60 10 -10 18 -22 18 -27 0 -5 8
-17 18 -27 9 -9 35 -41 57 -70 79 -104 180 -229 197 -245 10 -9 18 -20 18 -24
0 -4 10 -17 23 -29 12 -11 33 -37 47 -56 26 -38 131 -172 141 -180 3 -3 31
-39 61 -80 31 -41 65 -86 78 -100 16 -19 20 -32 15 -57 -6 -31 -4 -33 23 -33
18 0 32 6 36 16 6 16 8 16 24 0 16 -13 45 -16 180 -16 89 0 162 3 162 7 0 10
-70 133 -125 218 -67 103 -136 179 -194 212 -106 62 -354 250 -346 263 3 4 -3
14 -13 21 -15 13 -16 12 -3 -3 8 -11 9 -18 3 -18 -6 0 -51 41 -102 91 -73 73
-89 95 -85 113 4 14 3 17 -3 8 -7 -10 -17 -1 -40 35 -69 108 -71 120 -76 398
-4 215 -3 254 9 259 20 7 19 43 -1 54 -13 7 -18 29 -20 108 -3 75 -1 92 6 69
5 -16 8 -35 6 -42 -3 -6 1 -14 8 -16 7 -3 17 -20 21 -39 4 -18 9 -40 12 -48 2
-8 5 -21 5 -27 1 -7 5 -13 10 -13 4 0 8 -9 8 -19 0 -11 5 -23 10 -26 5 -3 10
-12 10 -20 0 -15 71 -124 108 -165 12 -14 20 -31 17 -38 -3 -7 -1 -11 4 -8 10
6 48 -33 53 -54 2 -8 12 -17 23 -20 11 -3 20 -12 20 -20 0 -8 7 -15 15 -15 19
0 48 -27 42 -39 -3 -5 0 -6 6 -3 15 10 42 -3 42 -19 0 -8 6 -14 14 -14 7 0 19
-7 26 -15 7 -8 19 -14 28 -13 8 2 17 -3 19 -10 3 -7 1 -12 -4 -11 -4 1 -16 1
-25 0 -21 -1 -13 -31 9 -31 8 0 12 -4 8 -9 -3 -5 0 -13 6 -17 8 -5 10 1 7 19
-3 17 0 28 9 31 23 9 30 7 13 -4 -10 -7 -11 -10 -2 -10 7 0 15 7 18 15 11 29
40 16 56 -24 15 -38 86 -101 114 -101 7 0 35 -14 63 -31 49 -31 51 -31 176
-30 l127 1 -7 -64 c-7 -59 -5 -67 19 -98 27 -36 76 -148 100 -228 14 -46 14
-46 -24 -109 -47 -78 -93 -193 -125 -313 -33 -124 -33 -138 4 -138 21 0 32 6
36 20 4 12 16 20 28 21 46 1 105 1 209 0 97 -1 107 -3 113 -21 8 -27 65 -29
65 -2 1 15 2 15 13 -3 10 -17 13 -9 17 55 4 64 7 75 23 72 9 -2 17 3 17 12 0
11 12 14 48 13 l47 -2 -1 45 c-1 25 -11 75 -22 110 -16 54 -18 78 -11 139 4
40 11 76 14 79 12 12 80 -33 80 -52 0 -31 61 -57 119 -51 55 6 96 32 74 47 -9
6 -6 7 8 4 15 -5 31 5 62 39 48 52 63 54 145 17 27 -12 51 -22 54 -22 4 0 30
11 58 25 61 29 74 27 184 -31 66 -35 77 -44 97 -89 13 -27 23 -45 23 -40 1 6
10 -4 21 -22 34 -57 62 -68 135 -54 35 6 68 11 72 10 4 -1 16 1 26 6 11 5 24
2 36 -9 17 -15 21 -15 52 1 19 10 38 24 42 31 5 7 13 10 18 6 11 -7 71 41 62
50 -4 3 -1 6 6 6 7 0 10 3 8 7 -9 15 13 54 24 47 8 -4 9 -3 5 5 -8 13 12 44
24 36 10 -6 63 52 56 63 -3 5 3 17 14 27 16 14 20 31 20 77 l0 59 -37 -25
c-35 -24 -37 -24 -67 -9 -17 9 -114 44 -216 78 -139 46 -186 66 -188 79 -4 17
3 18 70 11 40 -4 134 -18 208 -32 183 -34 225 -39 216 -25 -11 18 -98 41 -251
67 -155 26 -365 43 -365 29 1 -14 26 -44 38 -44 6 0 12 5 14 12 5 14 38 4 38
-12 0 -5 -7 -10 -16 -10 -9 0 -14 -7 -12 -16 2 -11 68 -38 218 -88 118 -39
221 -75 228 -80 11 -6 10 -12 -4 -27 -9 -10 -23 -19 -29 -19 -7 0 -38 -27 -68
-60 -58 -62 -78 -70 -113 -46 -27 19 -92 14 -127 -9 -35 -22 -69 -14 -96 24
-19 26 -20 32 -7 74 10 35 11 52 1 79 -11 33 -10 35 17 47 15 7 33 21 38 31 9
18 8 18 -17 4 -59 -30 -123 -9 -209 71 -15 14 -30 22 -34 20 -4 -3 -11 6 -14
20 -10 38 -25 30 -28 -17 -5 -73 -66 -97 -125 -51 -21 16 -22 21 -11 55 15 51
4 58 -35 21 -17 -17 -57 -45 -87 -61 -48 -27 -60 -30 -98 -23 -23 5 -51 16
-61 25 -26 23 -31 20 -20 -13 5 -15 21 -34 35 -42 28 -15 54 -51 33 -47 -7 2
-17 -16 -23 -39 -6 -23 -15 -46 -21 -52 -21 -20 -62 -15 -103 12 -46 30 -56
33 -47 15 4 -7 -1 -4 -9 6 -11 14 -13 22 -5 27 17 10 -16 19 -71 19 -41 0 -52
4 -70 28 l-22 27 4 -37 c2 -20 0 -34 -4 -32 -4 3 -8 29 -8 59 0 43 4 55 18 59
26 7 165 34 272 51 145 24 145 24 164 55 9 16 22 29 29 27 7 -1 12 5 12 13 0
22 -115 32 -347 28 l-196 -4 -16 34 c-9 18 -14 38 -11 43 4 5 2 9 -4 9 -5 0
-8 8 -6 18 1 9 8 16 14 14 15 -3 14 15 -1 21 -10 3 -7 15 10 45 17 32 22 57
22 116 0 41 4 77 9 80 5 4 7 -3 4 -15 -5 -19 -4 -20 16 -8 26 17 29 51 4 42
-40 -13 24 24 70 41 30 11 52 27 59 42 6 13 14 21 18 19 4 -2 5 6 3 18 -6 36
18 70 57 80 19 5 46 18 59 30 13 12 21 16 16 8 -6 -10 -4 -12 4 -7 7 4 10 13
8 19 -2 7 4 30 14 51 9 22 15 45 12 53 -3 7 -1 13 5 13 6 0 8 10 4 22 -3 13
-1 19 5 15 6 -4 22 24 38 64 16 38 32 72 36 74 3 3 21 -23 39 -56 17 -33 39
-63 48 -65 10 -3 30 -12 46 -20 23 -12 31 -12 44 -2 13 11 14 11 7 -1 -6 -11
-1 -13 24 -9 27 4 35 0 52 -24 23 -32 40 -35 60 -12 11 14 10 22 -8 55 l-21
39 23 0 c12 0 38 -6 56 -14 19 -7 69 -16 113 -20 64 -5 86 -11 124 -36 25 -16
58 -30 74 -30 26 0 88 -24 88 -35 0 -2 -11 -15 -25 -29 -46 -46 -22 -96 30
-62 27 18 39 21 31 7 -3 -5 4 -9 17 -10 12 -1 39 -3 60 -4 20 -1 37 -5 37 -9
0 -29 49 17 114 104 16 22 34 37 42 34 7 -3 15 0 17 7 3 7 3 -6 1 -28 -3 -32
-2 -36 6 -20 7 15 8 7 4 -32 -3 -32 -1 -54 6 -58 8 -5 7 -11 -1 -22 -10 -12
-10 -16 2 -24 10 -6 10 -9 1 -9 -9 0 -12 -21 -10 -79 2 -75 3 -81 30 -101 l28
-21 0 1136 0 1135 -1805 0 -1805 0 0 -1295z m1846 820 c113 -32 218 -83 276
-134 91 -80 136 -241 145 -518 5 -166 -7 -375 -27 -453 l-9 -35 2 34 2 34 -67
2 c-37 1 -65 -2 -63 -6 3 -4 -4 -5 -15 -2 -12 3 -20 0 -20 -8 0 -7 -3 -10 -6
-6 -6 5 -14 -1 -78 -60 -13 -12 -26 -19 -29 -16 -3 2 -9 -15 -14 -39 -5 -23
-6 -45 -2 -48 3 -3 5 -24 4 -47 -2 -31 3 -47 16 -59 11 -9 19 -23 19 -29 0 -7
10 -20 23 -28 21 -15 20 -15 -16 -6 -35 9 -165 83 -178 101 -3 5 -34 13 -68
19 l-62 11 27 29 c15 16 30 45 33 66 8 50 -6 179 -23 214 -12 25 -12 30 5 45
20 18 25 34 10 34 -5 0 -11 -9 -14 -20 -3 -11 -17 -24 -32 -30 -27 -10 -27
-11 -21 -78 4 -37 3 -62 -1 -57 -10 13 -63 14 -63 1 0 -5 -6 -2 -13 8 -12 16
-13 16 -15 -8 -3 -48 -5 -55 -14 -50 -4 3 -12 -5 -17 -18 -9 -21 -17 -10 -11
17 1 6 -4 4 -12 -3 -10 -10 -10 -17 -1 -31 12 -19 1 -41 -21 -41 -6 0 -4 5 4
10 12 8 10 10 -10 11 -17 1 -19 3 -7 6 9 2 17 9 17 14 0 6 -4 8 -9 5 -5 -4
-12 0 -14 6 -3 8 -6 6 -6 -4 -1 -10 -6 -18 -12 -18 -6 0 -9 7 -5 15 3 9 0 15
-9 15 -23 0 -18 -18 11 -37 24 -15 25 -17 8 -24 -17 -7 -16 -8 5 -8 16 -1 21
-5 17 -16 -8 -22 12 -18 24 5 12 22 24 19 39 -9 8 -15 4 -17 -31 -20 -51 -3
-61 -8 -55 -31 4 -16 -1 -18 -37 -17 -22 0 -51 -3 -63 -7 -14 -5 -23 -3 -23 3
0 11 7 13 46 14 16 0 22 6 22 23 0 29 -25 39 -33 14 -4 -11 -12 -17 -21 -13
-8 3 -14 -1 -14 -11 0 -9 -4 -16 -9 -16 -5 0 -7 -9 -4 -20 4 -16 0 -20 -22
-20 -14 0 -33 7 -42 16 -9 8 -21 13 -28 10 -9 -3 -11 2 -8 15 4 15 8 17 19 8
9 -7 14 -8 14 -1 0 5 -7 12 -15 16 -10 3 -15 19 -15 43 0 22 -9 48 -20 63 -11
14 -20 31 -20 38 0 7 -4 11 -9 8 -5 -3 -29 13 -55 35 -49 43 -115 61 -143 38
-7 -6 -13 -8 -13 -4 0 4 -7 2 -15 -5 -9 -7 -18 -10 -21 -7 -3 3 -17 2 -31 -4
-15 -5 -22 -5 -18 0 3 6 -4 9 -15 8 -20 -1 -29 -17 -10 -17 13 0 1 -32 -18
-47 -8 -7 -12 -19 -9 -27 3 -8 0 -17 -8 -20 -8 -3 -15 -1 -17 4 -2 4 -11 -2
-20 -14 -13 -18 -13 -23 -3 -23 8 0 11 5 8 11 -3 6 -2 7 2 3 5 -4 10 -14 11
-23 2 -11 -4 -13 -19 -10 -12 3 -16 3 -9 0 6 -3 9 -11 6 -16 -4 -6 -3 -8 3 -5
6 4 10 -6 11 -23 0 -17 -3 -30 -7 -30 -13 0 -32 26 -24 33 3 4 1 7 -5 7 -7 0
-12 7 -12 15 0 8 -7 15 -15 15 -8 0 -15 5 -15 11 0 5 -5 7 -11 3 -8 -4 -9 0
-4 15 4 12 2 21 -4 21 -6 0 -8 7 -5 15 7 18 -11 68 -38 107 -22 31 -51 135
-42 149 3 5 1 9 -5 9 -6 0 -10 12 -10 28 -1 87 1 110 10 142 13 42 58 111 69
105 3 -2 7 2 7 9 0 7 13 32 30 57 17 24 38 59 47 77 9 17 24 32 32 32 16 0 15
-7 -2 -85 -3 -11 1 -29 9 -39 20 -28 60 -14 93 32 45 61 187 201 197 195 6 -3
7 -1 3 5 -6 10 172 183 259 252 142 113 313 146 491 95z m-1542 -525 c59 -52
65 -76 62 -247 -2 -84 0 -153 3 -153 3 0 7 -21 7 -48 1 -26 5 -59 9 -74 6 -25
5 -28 -19 -28 -111 0 -226 194 -226 379 0 92 12 140 45 175 33 36 75 34 119
-4z m1376 -629 c0 -18 -10 -41 -26 -58 l-26 -28 21 29 c12 16 21 42 21 57 0
16 2 29 5 29 3 0 5 -13 5 -29z m-506 -258 c-13 -10 -14 -13 -3 -13 8 -1 -1 -9
-19 -18 -18 -10 -29 -22 -25 -27 4 -4 2 -5 -4 -1 -19 11 -16 24 7 31 16 5 19
12 14 27 -4 14 -2 18 5 14 6 -4 11 -3 11 3 0 6 7 8 16 4 15 -6 15 -8 -2 -20z
m185 -129 c14 -12 -19 -1 -35 12 -18 14 -18 14 6 3 14 -6 27 -13 29 -15z
m-969 -522 c52 -164 175 -316 394 -487 63 -49 115 -95 116 -100 0 -6 24 -38
53 -72 84 -99 112 -135 115 -150 2 -7 -7 -43 -19 -80 -22 -67 -22 -67 -38 -43
-9 14 -43 58 -76 100 -33 41 -63 80 -67 85 -4 6 -22 28 -41 50 -18 22 -53 66
-76 98 -23 32 -49 61 -57 64 -8 3 -14 11 -14 17 0 7 -16 29 -35 50 -19 21 -35
42 -35 47 0 5 -3 9 -7 9 -5 0 -19 17 -33 37 -14 20 -29 41 -35 47 -5 6 -22 27
-37 46 -14 19 -43 54 -65 77 -21 23 -56 63 -78 88 -22 26 -53 61 -69 78 l-29
31 34 63 34 63 21 -23 c12 -13 32 -56 44 -95z m-192 13 c-12 -27 -27 -32 -78
-26 l-35 4 60 23 c33 13 61 23 62 23 2 1 -2 -10 -9 -24z m1671 -51 c24 -5 37
-16 51 -44 l19 -36 -82 3 c-58 3 -87 9 -100 21 -18 16 -18 17 10 39 29 24 50
27 102 17z m-245 -81 c8 -10 52 -65 97 -123 46 -58 87 -106 91 -108 5 -2 8
-10 8 -18 0 -8 4 -14 9 -14 5 0 11 -7 15 -15 7 -19 -72 -75 -82 -57 -10 15
-65 83 -79 98 -7 7 -13 16 -13 19 0 4 -22 31 -48 61 -48 53 -49 55 -41 102 4
26 8 53 8 60 1 17 19 15 35 -5z m779 0 c47 -4 67 -10 67 -19 0 -8 -10 -14 -22
-15 -38 -1 -254 -39 -365 -63 -30 -7 -33 -5 -38 21 -4 15 -10 38 -15 50 -9 21
-6 22 48 26 87 6 249 6 325 0z m-668 -53 c10 -11 16 -20 13 -20 -3 0 -13 9
-23 20 -10 11 -16 20 -13 20 3 0 13 -9 23 -20z m232 6 c1 0 4 -13 8 -29 l7
-27 -59 0 c-49 0 -63 4 -80 23 -42 46 -40 48 44 41 43 -4 79 -7 80 -8z m-162
-96 c21 -28 36 -52 34 -54 -2 -2 -21 20 -42 50 -48 68 -41 71 8 4z m163 -9 c7
-1 12 -16 12 -38 0 -34 -3 -38 -24 -38 -19 0 -29 10 -45 42 l-21 43 33 -4 c17
-2 38 -4 45 -5z m217 -114 c-8 -4 -24 -5 -35 -2 -14 4 -20 2 -20 -9 0 -17 -26
-12 -33 7 -3 8 13 12 49 12 36 1 49 -2 39 -8z m-457 -104 c-17 -22 -25 -15
-42 34 -21 62 -21 62 18 17 25 -28 31 -42 24 -51z m285 47 c13 -28 16 -47 10
-71 l-9 -33 -21 55 c-12 30 -24 62 -28 72 -5 12 -2 17 11 17 12 0 26 -15 37
-40z m248 -8 c-8 -3 -7 -8 6 -18 10 -7 13 -14 6 -14 -12 0 -26 17 -29 37 -1 7
5 9 14 5 11 -4 12 -7 3 -10z m49 -19 c0 -5 -5 -15 -10 -23 -7 -12 -9 -10 -7 8
1 19 17 33 17 15z m1230 -77 l-23 -21 19 33 c10 18 20 28 23 21 2 -6 -7 -21
-19 -33z m-1744 -61 c17 1 27 -11 48 -52 l26 -54 -107 7 c-60 3 -110 8 -112
10 -2 2 8 23 23 48 26 44 64 63 91 45 6 -3 20 -5 31 -4z m-712 -100 c18 -47
-2 -37 -54 29 -15 19 -14 19 16 3 17 -9 34 -24 38 -32z m2326 31 c0 -2 -8 -10
-17 -17 -16 -13 -17 -12 -4 4 13 16 21 21 21 13z m-186 -15 c4 -5 -3 -7 -14
-4 -23 6 -26 13 -6 13 8 0 17 -4 20 -9z m-1432 -51 c118 -2 126 -9 94 -82
l-21 -49 -120 5 c-66 3 -130 5 -142 6 -29 0 -29 7 1 74 23 52 26 54 58 51 18
-2 77 -4 130 -5z m-112 -164 c52 -3 114 -5 138 -6 l42 0 0 -44 0 -43 -57 3
c-32 2 -102 5 -156 8 -55 2 -101 6 -103 9 -2 2 3 25 12 51 9 27 19 43 23 38 3
-6 49 -13 101 -16z"/>
<path d="M1748 3143 c6 -3 12 -9 12 -14 0 -5 9 -9 20 -9 11 0 20 5 20 10 0 6
-6 10 -12 10 -7 0 -22 2 -33 4 -11 2 -14 1 -7 -1z"/>
<path d="M1657 2995 c3 -8 9 -12 14 -9 12 7 11 11 -5 17 -10 4 -13 1 -9 -8z"/>
<path d="M1366 2968 c3 -5 10 -6 15 -3 13 9 11 12 -6 12 -8 0 -12 -4 -9 -9z"/>
<path d="M1585 2931 c-3 -5 -2 -12 3 -15 5 -3 9 1 9 9 0 17 -3 19 -12 6z"/>
<path d="M1305 2910 c3 -5 11 -10 16 -10 6 0 7 5 4 10 -3 6 -11 10 -16 10 -6
0 -7 -4 -4 -10z"/>
<path d="M1671 2904 c0 -11 3 -14 6 -6 3 7 2 16 -1 19 -3 4 -6 -2 -5 -13z"/>
<path d="M1875 2909 c-4 -6 -5 -12 -2 -15 2 -3 7 2 10 11 7 17 1 20 -8 4z"/>
<path d="M1557 2893 c3 -7 8 -13 12 -14 39 -5 49 -4 45 3 -3 4 -14 8 -25 8
-11 0 -18 4 -15 8 3 5 -1 9 -8 9 -8 0 -12 -6 -9 -14z"/>
<path d="M1233 2889 c3 -9 -2 -27 -10 -39 -15 -21 -15 -24 2 -36 23 -17 30
-12 17 13 -11 21 0 49 15 40 5 -3 10 0 10 8 0 8 -5 11 -10 8 -5 -3 -14 1 -19
8 -8 11 -9 11 -5 -2z"/>
<path d="M1310 2890 c-19 -4 -29 -8 -22 -9 7 0 10 -5 7 -11 -3 -5 -1 -10 4
-10 6 0 11 6 11 13 0 9 3 8 9 -2 7 -11 11 -9 20 8 7 11 10 20 9 20 -2 -1 -19
-5 -38 -9z"/>
<path d="M1516 2878 c3 -4 1 -8 -4 -8 -6 0 -13 -8 -16 -17 -6 -14 -3 -14 15 3
22 19 22 19 15 -3 -6 -17 -3 -23 9 -23 9 0 13 5 10 10 -3 6 1 10 9 10 9 0 16
5 16 10 0 6 -7 10 -16 10 -8 0 -13 4 -10 8 2 4 -4 8 -14 8 -10 0 -16 -4 -14
-8z"/>
<path d="M1263 2821 c5 -19 -16 -37 -37 -32 -5 1 -3 -5 4 -14 10 -12 15 -13
20 -4 4 6 13 8 20 4 8 -5 11 -3 8 6 -3 8 -1 21 3 31 6 11 4 18 -7 22 -13 5
-15 2 -11 -13z"/>
<path d="M1934 2804 c0 -21 2 -32 4 -25 2 6 8 9 13 5 12 -7 11 7 -1 26 -6 9
-5 17 3 22 8 5 7 8 -3 8 -12 0 -16 -10 -16 -36z"/>
<path d="M1988 2813 c7 -3 16 -2 19 1 4 3 -2 6 -13 5 -11 0 -14 -3 -6 -6z"/>
<path d="M1973 2780 c-3 -10 -14 -22 -25 -26 -17 -5 -18 -8 -4 -22 9 -11 12
-23 7 -32 -5 -8 -12 -25 -15 -37 -6 -19 -3 -23 13 -23 12 0 21 4 21 10 0 5 -8
6 -17 3 -15 -5 -16 -4 -7 8 6 8 14 21 16 29 4 11 9 7 17 -12 6 -16 18 -28 28
-28 15 0 15 2 -3 15 -18 15 -18 15 11 13 28 -3 30 -1 31 37 2 46 -5 72 -15 56
-8 -12 -51 -3 -51 11 0 5 5 6 12 2 7 -4 8 -3 4 4 -10 17 -17 15 -23 -8z"/>
<path d="M1197 2711 c4 -15 0 -19 -14 -17 -10 2 -12 1 -5 -1 6 -3 12 -8 12
-13 0 -5 7 -7 15 -4 8 4 15 1 15 -6 0 -6 5 -8 11 -4 8 4 8 9 0 17 -18 18 -12
28 10 17 11 -7 23 -9 26 -7 4 4 -29 19 -47 22 -3 0 -10 4 -17 8 -7 5 -9 1 -6
-12z"/>
<path d="M1365 2720 c-3 -5 -1 -10 4 -10 6 0 11 5 11 10 0 6 -2 10 -4 10 -3 0
-8 -4 -11 -10z"/>
<path d="M1455 2697 c4 -8 15 -17 25 -20 13 -3 17 -1 13 10 -3 7 -8 11 -11 9
-3 -3 -11 -1 -19 6 -11 8 -12 7 -8 -5z"/>
<path d="M1506 2701 c-3 -4 0 -16 8 -26 11 -15 13 -16 13 -1 0 9 -4 16 -9 16
-5 0 -6 5 -3 10 3 6 4 10 1 10 -3 0 -7 -4 -10 -9z"/>
<path d="M1625 2700 c-3 -5 1 -10 10 -10 9 0 13 5 10 10 -3 6 -8 10 -10 10 -2
0 -7 -4 -10 -10z"/>
<path d="M1411 2684 c0 -11 3 -14 6 -6 3 7 2 16 -1 19 -3 4 -6 -2 -5 -13z"/>
<path d="M1545 2670 c-3 -5 0 -7 8 -4 21 8 30 -25 11 -43 -13 -13 -13 -17 -2
-24 20 -13 28 -11 21 8 -4 9 -2 14 3 11 5 -4 9 9 10 28 0 19 -2 30 -6 23 -6
-8 -9 -8 -14 0 -9 14 -23 14 -31 1z"/>
<path d="M1471 2645 c0 -5 3 -16 8 -23 7 -11 9 -10 14 3 4 9 3 14 -2 10 -5 -3
-12 1 -14 7 -3 7 -6 9 -6 3z"/>
<path d="M1538 2643 c-11 -3 -15 -10 -11 -20 5 -12 3 -14 -7 -8 -9 6 -11 4 -5
-4 5 -9 13 -7 31 10 33 31 32 33 -8 22z"/>
<path d="M1155 2619 c-4 -6 -5 -12 -2 -15 2 -3 7 2 10 11 7 17 1 20 -8 4z"/>
<path d="M1216 2588 c3 -5 10 -6 15 -3 13 9 11 12 -6 12 -8 0 -12 -4 -9 -9z"/>
<path d="M1460 2589 c0 -5 -4 -8 -9 -5 -5 3 -11 -3 -14 -15 -4 -16 -3 -18 9
-8 10 8 14 8 14 0 0 -6 5 -11 12 -11 9 0 9 3 1 11 -6 6 -9 18 -6 25 3 8 2 14
-1 14 -3 0 -6 -5 -6 -11z"/>
<path d="M1495 2590 c-3 -5 -1 -10 4 -10 6 0 11 5 11 10 0 6 -2 10 -4 10 -3 0
-8 -4 -11 -10z"/>
<path d="M1530 2582 c0 -5 7 -9 15 -9 8 0 12 4 9 9 -3 4 -9 8 -15 8 -5 0 -9
-4 -9 -8z"/>
<path d="M1826 2578 c3 -5 10 -6 15 -3 13 9 11 12 -6 12 -8 0 -12 -4 -9 -9z"/>
<path d="M1105 2559 c-4 -6 -5 -12 -2 -15 2 -3 7 2 10 11 7 17 1 20 -8 4z"/>
<path d="M1379 2568 c-7 -24 -5 -36 5 -32 14 5 17 34 4 34 -4 0 -8 -1 -9 -2z"/>
<path d="M1850 2554 c0 -8 5 -12 10 -9 6 4 8 11 5 16 -9 14 -15 11 -15 -7z"/>
<path d="M1072 2538 c2 -12 10 -24 18 -26 13 -5 13 -3 2 11 -8 9 -11 21 -7 27
3 5 1 10 -5 10 -6 0 -10 -10 -8 -22z"/>
<path d="M1342 2512 c-11 -25 -11 -25 4 -10 9 9 15 21 13 27 -2 6 -10 -2 -17
-17z"/>
<path d="M1861 2531 c-10 -6 -10 -10 -1 -16 13 -8 24 -1 19 14 -3 6 -10 7 -18
2z"/>
<path d="M1510 2523 c0 -6 -8 -10 -17 -9 -15 1 -18 -6 -16 -36 1 -24 -3 -35
-10 -32 -16 6 -48 -52 -40 -74 5 -14 4 -14 -9 2 -10 13 -15 14 -15 5 0 -8 -3
-27 -7 -42 -4 -16 -2 -27 4 -27 7 0 8 -6 1 -18 -8 -14 -6 -19 5 -19 7 0 12 3
9 5 -3 3 0 11 6 19 8 9 15 10 24 3 10 -8 12 1 12 40 -1 27 -5 50 -9 50 -4 0
-8 5 -8 11 0 7 11 4 28 -7 23 -15 25 -15 13 -1 -12 15 -10 18 14 27 15 6 32
13 36 16 5 3 6 -3 2 -12 -4 -12 -3 -15 6 -10 17 11 8 83 -13 104 -9 9 -16 11
-16 5z m14 -28 c-7 -18 -30 -20 -40 -3 -4 6 -3 8 4 4 6 -3 13 -2 17 4 10 16
25 12 19 -5z"/>
<path d="M1828 2478 c-7 -13 -11 -27 -10 -31 1 -5 -7 -6 -18 -2 -14 5 -20 2
-20 -9 0 -10 9 -16 23 -17 20 -1 20 -2 2 -6 -30 -7 -43 -23 -18 -23 11 0 26 7
33 15 7 8 19 15 26 15 8 0 14 5 14 11 0 5 -6 7 -12 4 -7 -4 -4 1 7 11 16 13
17 16 3 11 -10 -3 -20 -2 -23 3 -4 6 -2 10 3 10 5 0 9 7 9 15 0 20 -4 19 -19
-7z"/>
<path d="M1585 2480 c-3 -5 -2 -10 4 -10 5 0 13 5 16 10 3 6 2 10 -4 10 -5 0
-13 -4 -16 -10z"/>
<path d="M1316 2455 c-18 -14 -13 -41 6 -29 6 4 13 1 17 -5 4 -6 15 -9 24 -5
9 3 14 11 11 16 -4 6 -10 5 -15 -3 -6 -10 -9 -11 -9 -1 0 6 -8 12 -17 12 -15
0 -16 2 -3 10 8 5 12 11 10 14 -3 2 -13 -2 -24 -9z"/>
<path d="M2220 2461 c0 -6 6 -14 13 -16 6 -3 12 -19 13 -35 1 -25 -1 -28 -13
-18 -11 9 -13 8 -11 -3 3 -15 18 -29 31 -29 15 0 3 80 -15 97 -11 10 -18 12
-18 4z"/>
<path d="M1756 2425 c-3 -9 0 -15 9 -15 9 0 12 6 9 15 -4 8 -7 15 -9 15 -2 0
-5 -7 -9 -15z"/>
<path d="M2190 2430 c-9 -6 -10 -10 -3 -10 6 0 15 5 18 10 8 12 4 12 -15 0z"/>
<path d="M1776 2363 c5 -5 12 -12 15 -16 3 -5 9 -2 12 7 5 12 0 16 -15 16 -12
0 -17 -3 -12 -7z"/>
<path d="M1226 2345 c4 -8 0 -23 -7 -33 -13 -15 -12 -16 4 -3 18 14 24 51 7
51 -5 0 -7 -7 -4 -15z"/>
<path d="M1759 2333 c-13 -16 -12 -17 4 -4 9 7 17 15 17 17 0 8 -8 3 -21 -13z"/>
<path d="M1605 2321 c-6 -11 13 -26 22 -17 4 3 1 6 -6 6 -7 0 -9 5 -6 10 3 6
4 10 1 10 -3 0 -7 -4 -11 -9z"/>
<path d="M1725 2296 c-9 -20 8 -36 38 -36 12 0 16 -5 11 -12 -5 -10 -3 -10 7
0 12 11 12 14 -1 22 -12 8 -10 10 10 11 24 1 24 1 -4 9 -16 5 -33 7 -37 5 -4
-3 -9 1 -12 7 -3 9 -7 7 -12 -6z"/>
<path d="M1321 2284 c0 -11 3 -14 6 -6 3 7 2 16 -1 19 -3 4 -6 -2 -5 -13z"/>
<path d="M1357 2293 c-21 -5 -18 -25 4 -28 9 -2 15 5 15 16 0 11 0 18 -1 18 0
-1 -8 -3 -18 -6z"/>
<path d="M1532 2284 c-11 -12 -9 -14 11 -14 14 0 30 7 37 15 8 9 9 15 2 15 -6
0 -14 -5 -18 -11 -4 -7 -9 -8 -13 -1 -4 6 -11 4 -19 -4z"/>
<path d="M820 2269 c-7 -11 -9 -23 -6 -27 3 -3 6 0 6 6 0 7 8 12 18 13 10 0
12 3 4 6 -6 2 -10 9 -6 14 3 5 3 9 0 9 -3 0 -10 -9 -16 -21z"/>
<path d="M1675 2280 c3 -5 11 -10 16 -10 6 0 7 5 4 10 -3 6 -11 10 -16 10 -6
0 -7 -4 -4 -10z"/>
<path d="M1494 2271 c4 -5 0 -11 -6 -14 -7 -3 -3 -4 9 -4 17 1 19 4 11 14 -12
15 -22 18 -14 4z"/>
<path d="M1127 2239 c7 -7 15 -10 18 -7 3 3 -2 9 -12 12 -14 6 -15 5 -6 -5z"/>
<path d="M1230 2241 c0 -6 4 -13 10 -16 6 -3 7 1 4 9 -7 18 -14 21 -14 7z"/>
<path d="M1386 2236 c3 -8 12 -17 20 -20 11 -4 12 -2 1 14 -14 23 -29 27 -21
6z"/>
<path d="M720 2228 c0 -4 4 -8 9 -8 6 0 12 4 15 8 3 5 -1 9 -9 9 -8 0 -15 -4
-15 -9z"/>
<path d="M1691 2214 c0 -11 3 -14 6 -6 3 7 2 16 -1 19 -3 4 -6 -2 -5 -13z"/>
<path d="M1759 2213 c-13 -16 -12 -17 4 -4 9 7 17 15 17 17 0 8 -8 3 -21 -13z"/>
<path d="M1096 2208 c2 -4 0 -9 -6 -13 -16 -10 -12 -72 6 -89 8 -9 16 -16 17
-16 1 0 17 -4 36 -10 19 -5 31 -7 27 -3 -3 3 3 12 14 20 28 20 27 73 -3 101
-15 14 -33 20 -59 19 -20 -1 -34 -5 -32 -9z"/>
<path d="M1986 2199 c-47 -37 -30 -100 31 -115 21 -6 32 -1 55 25 34 38 35 55
3 86 -30 30 -54 31 -89 4z"/>
<path d="M787 2190 c-3 -11 -2 -20 1 -20 4 0 8 -15 9 -32 4 -51 6 -58 15 -52
4 3 5 22 2 42 -3 20 -5 45 -5 54 0 26 -16 31 -22 8z"/>
<path d="M1230 2189 c0 -5 5 -7 10 -4 6 3 10 8 10 11 0 2 -4 4 -10 4 -5 0 -10
-5 -10 -11z"/>
<path d="M714 2148 c-9 -14 -2 -16 26 -8 25 6 25 6 3 12 -13 3 -26 2 -29 -4z"/>
<path d="M730 2110 c-13 -8 -13 -10 2 -10 9 0 20 5 23 10 8 13 -5 13 -25 0z"/>
<path d="M1199 2098 c0 -2 -2 -13 -3 -25 -4 -31 11 -29 16 2 3 14 1 25 -3 25
-5 0 -9 -1 -10 -2z"/>
<path d="M1599 2083 c-13 -16 -12 -17 4 -4 16 13 21 21 13 21 -2 0 -10 -8 -17
-17z"/>
<path d="M736 2075 c-9 -26 -7 -32 5 -12 6 10 9 21 6 23 -2 3 -7 -2 -11 -11z"/>
<path d="M820 2040 c-9 -6 -10 -10 -3 -10 6 0 15 5 18 10 8 12 4 12 -15 0z"/>
<path d="M1547 2033 c-4 -3 -7 -11 -7 -17 0 -6 5 -5 12 2 6 6 9 14 7 17 -3 3
-9 2 -12 -2z"/>
<path d="M1309 1983 c-12 -16 -12 -17 1 -7 8 6 22 14 30 17 13 5 12 6 -1 6 -9
1 -23 -7 -30 -16z"/>
<path d="M1220 1956 c0 -2 7 -7 16 -10 8 -3 12 -2 9 4 -6 10 -25 14 -25 6z"/>
<path d="M1424 1869 c-1 -24 1 -28 8 -15 5 9 15 16 22 16 8 0 16 7 20 15 3 8
1 15 -4 15 -6 0 -10 -4 -10 -10 0 -5 -5 -10 -11 -10 -5 0 -7 5 -4 10 3 6 0 10
-7 10 -8 0 -13 -13 -14 -31z"/>
<path d="M1515 1890 c-3 -5 -1 -10 4 -10 6 0 11 5 11 10 0 6 -2 10 -4 10 -3 0
-8 -4 -11 -10z"/>
<path d="M1272 1822 c2 -9 13 -17 25 -18 26 -1 20 22 -8 29 -15 4 -19 1 -17
-11z"/>
<path d="M229 2323 c-13 -16 -12 -17 4 -4 9 7 17 15 17 17 0 8 -8 3 -21 -13z"/>
<path d="M2627 1614 c-7 -7 1 -152 9 -166 3 -4 14 -8 24 -8 15 0 20 10 25 43
7 55 0 123 -14 120 -6 -2 -11 2 -11 7 0 11 -23 14 -33 4z"/>
<path d="M2873 1612 c-27 -17 -68 -93 -99 -182 -18 -52 -40 -112 -48 -132 -20
-48 -21 -46 12 -41 22 3 21 1 -8 -9 -19 -7 -39 -22 -44 -34 -9 -19 -10 -20
-25 -4 -9 9 -23 28 -31 43 -8 14 -41 53 -73 86 -60 64 -85 73 -130 49 -54 -28
-61 -76 -18 -119 31 -30 77 -39 98 -18 14 14 50 -39 59 -88 5 -26 11 -33 30
-33 12 0 27 6 31 14 4 7 20 15 35 18 15 3 25 1 22 -3 -3 -5 -1 -9 4 -9 6 0 14
-12 20 -27 8 -25 5 -32 -24 -63 -19 -19 -34 -43 -34 -53 0 -22 27 -33 50 -20
21 14 70 5 77 -13 7 -19 42 -17 50 2 3 10 1 31 -6 48 -22 54 -21 60 4 91 23
28 25 29 38 11 9 -13 16 -15 21 -8 11 18 34 3 29 -19 -3 -10 0 -19 6 -19 6 0
11 7 11 15 0 18 12 19 28 3 10 -10 15 -10 21 1 7 11 9 11 14 0 4 -11 6 -11 6
1 1 8 24 25 51 37 41 18 49 19 54 7 6 -16 65 -44 91 -44 29 0 65 46 65 84 0
62 -95 114 -130 71 -7 -8 -18 -15 -24 -15 -33 0 -91 -25 -121 -51 -28 -25 -40
-29 -64 -24 -16 3 -39 1 -50 -5 -19 -10 -20 -9 -11 16 8 20 7 31 -3 43 -28 33
-17 133 32 298 24 79 17 116 -16 95z"/>
<path d="M3034 1493 c-13 -14 -24 -30 -24 -36 0 -5 -11 -22 -25 -39 -21 -25
-38 -74 -18 -55 3 4 12 2 20 -4 17 -15 44 8 77 68 38 66 40 80 15 86 -15 4
-28 -2 -45 -20z"/>
<path d="M498 1483 c6 -2 18 -2 25 0 6 3 1 5 -13 5 -14 0 -19 -2 -12 -5z"/>
<path d="M510 1405 c0 -5 5 -17 10 -25 5 -8 10 -10 10 -5 0 6 -5 17 -10 25 -5
8 -10 11 -10 5z"/>
<path d="M516 1337 c3 -10 9 -15 12 -12 3 3 0 11 -7 18 -10 9 -11 8 -5 -6z"/>
<path d="M2031 1326 c-8 -9 -11 -19 -7 -23 9 -9 29 13 24 27 -2 8 -8 7 -17 -4z"/>
<path d="M511 1284 c0 -11 3 -14 6 -6 3 7 2 16 -1 19 -3 4 -6 -2 -5 -13z"/>
<path d="M2020 1270 c0 -11 2 -20 4 -20 2 0 6 9 9 20 3 11 1 20 -4 20 -5 0 -9
-9 -9 -20z"/>
<path d="M608 1243 c7 -3 16 -2 19 1 4 3 -2 6 -13 5 -11 0 -14 -3 -6 -6z"/>
<path d="M738 1102 c-4 -14 3 -18 39 -20 27 -2 42 1 39 7 -3 5 -14 7 -25 4
-10 -2 -25 2 -33 11 -14 14 -16 14 -20 -2z"/>
<path d="M563 1083 c4 -3 2 -12 -4 -19 -7 -8 -7 -14 1 -19 5 -3 10 0 11 7 0 7
5 4 10 -7 8 -18 8 -18 6 5 -1 16 3 24 11 22 8 -1 11 2 7 8 -3 5 -16 10 -27 10
-12 0 -18 -3 -15 -7z"/>
<path d="M1987 1070 c-3 -11 -1 -20 5 -20 5 0 7 -4 3 -9 -3 -5 -1 -12 4 -15 6
-4 8 7 6 25 -5 40 -11 46 -18 19z"/>
<path d="M2076 1081 c-8 -12 13 -18 89 -26 97 -11 259 -35 275 -42 8 -4 26 -7
40 -8 14 -1 42 -5 63 -9 36 -7 38 -6 35 16 -2 17 -10 23 -28 24 -14 1 -97 11
-185 22 -234 30 -283 34 -289 23z"/>
<path d="M514 1064 c-18 -14 -18 -14 6 -3 31 14 36 19 24 19 -6 0 -19 -7 -30
-16z"/>
<path d="M771 1054 c0 -11 3 -14 6 -6 3 7 2 16 -1 19 -3 4 -6 -2 -5 -13z"/>
<path d="M923 1062 c-7 -4 -11 -19 -8 -31 6 -32 -3 -45 -21 -30 -9 8 -14 8
-14 1 0 -6 8 -16 18 -21 9 -6 12 -11 5 -11 -16 0 -8 -39 12 -59 13 -14 15 -13
15 2 0 9 -4 17 -9 17 -15 0 -6 32 12 42 15 8 16 6 7 -16 -6 -16 -6 -27 0 -31
6 -4 10 -3 11 2 9 118 9 125 -5 120 -10 -4 -13 -1 -9 9 6 16 3 17 -14 6z"/>
<path d="M490 1036 c0 -2 7 -9 15 -16 9 -7 15 -8 15 -2 0 5 -7 12 -15 16 -8 3
-15 4 -15 2z"/>
<path d="M2927 993 c-4 -3 -7 -12 -7 -20 0 -15 26 -18 34 -4 7 11 -18 33 -27
24z"/>
<path d="M3004 966 c-16 -12 -16 -15 -4 -19 28 -10 499 -17 504 -8 8 12 -63
19 -249 26 -88 3 -176 8 -196 10 -21 3 -43 -1 -55 -9z"/>
<path d="M2545 910 c-8 -14 3 -30 21 -30 8 0 14 9 14 20 0 21 -24 28 -35 10z"/>
<path d="M750 900 c-9 -6 -10 -10 -3 -10 6 0 15 5 18 10 8 12 4 12 -15 0z"/>
<path d="M2921 896 c-8 -10 -8 -16 2 -25 16 -13 27 -5 27 21 0 21 -13 23 -29
4z"/>
<path d="M2452 853 c2 -10 10 -18 18 -18 8 0 16 8 18 18 2 12 -3 17 -18 17
-15 0 -20 -5 -18 -17z"/>
<path d="M868 833 c-14 -16 -14 -20 -1 -32 18 -17 30 -6 14 13 -9 11 -9 15 1
19 7 2 10 7 7 11 -3 3 -13 -2 -21 -11z"/>
<path d="M2976 832 c-8 -13 11 -35 23 -28 16 10 14 36 -3 36 -8 0 -17 -4 -20
-8z"/>
<path d="M698 811 l-28 -18 28 -13 c15 -8 31 -16 36 -19 5 -2 6 4 3 13 -6 14
-3 17 8 12 9 -3 13 -2 10 4 -3 6 -13 10 -20 10 -9 0 -12 6 -9 15 7 18 6 18
-28 -4z"/>
<path d="M900 804 c0 -8 5 -12 10 -9 6 3 10 10 10 16 0 5 -4 9 -10 9 -5 0 -10
-7 -10 -16z"/>
<path d="M715 740 c4 -6 11 -8 16 -5 14 9 11 15 -7 15 -8 0 -12 -5 -9 -10z"/>
<path d="M755 740 c3 -5 16 -15 28 -20 20 -10 20 -10 5 3 -10 8 -15 17 -11 20
3 4 -1 7 -11 7 -9 0 -14 -4 -11 -10z"/>
<path d="M1555 690 c-3 -5 -1 -10 4 -10 6 0 11 5 11 10 0 6 -2 10 -4 10 -3 0
-8 -4 -11 -10z"/>
<path d="M3590 579 c0 -5 5 -7 10 -4 6 3 10 8 10 11 0 2 -4 4 -10 4 -5 0 -10
-5 -10 -11z"/>
<path d="M2090 521 c0 -14 29 -21 36 -9 4 7 3 8 -4 4 -7 -4 -12 -2 -12 3 0 6
-4 11 -10 11 -5 0 -10 -4 -10 -9z"/>
<path d="M3330 310 c-11 -8 -7 -9 15 -4 37 8 45 14 19 14 -10 0 -26 -5 -34
-10z"/>
<path d="M2734 226 c-32 -14 -57 -42 -85 -94 -10 -18 -40 -42 -77 -62 -34 -18
-69 -41 -78 -51 -17 -18 -15 -19 34 -19 90 0 148 36 194 119 9 17 33 39 53 48
29 14 35 22 33 43 -4 30 -29 36 -74 16z"/>
<path d="M2025 150 c3 -5 8 -10 11 -10 2 0 4 5 4 10 0 6 -5 10 -11 10 -5 0 -7
-4 -4 -10z"/>
</g>
</svg>
