<svg xmlns="http://www.w3.org/2000/svg" width="103" height="73"><g fill="none" fill-rule="nonzero"><path fill="#90CDF4" d="M61.4 28.5l-15.6 9.1 43.1 31.6-13.6 3.4-35.5-21.1-25.2 4.4L.5 47.8l46.8-27.4z"/><path fill="#38B2AC" d="M75.5 8.7V29l-13.9 8.1.1-20.3zM47.9 24.9l-.1 20.3L34 53.3l.1-20.3z"/><path fill="#4299E1" d="M34.1 33L34 53.3l-12.5-7.2.1-20.3zM87.8 47.8l-.1 20.3-39.9-22.9.1-20.3z"/><path fill="#38B2AC" d="M101.6 39.7l-.1 20.3-13.8 8.1.1-20.3z"/><path fill="#F6E05E" d="M75.5 8.7l-13.8 8.1 39.9 22.9-13.8 8.1-39.9-22.9L34.1 33l-12.5-7.2L63 1.6z"/><path fill="#231F20" d="M102.5 39.7c0-.3-.2-.8-.6-1L76.4 24.1V8.8c0-.4-.2-.8-.6-1L63.3.6c-.4-.2-.8-.2-1.1 0L20.8 24.8c-.3.2-.6.6-.6 1l-.1 20.3c0 .4.2.8.6 1l12.5 7.2c.4.2.8.2 1.1 0l13.3-7.8L86.9 69c.3.2.8.2 1.1 0l13.8-8.1c.3-.2.6-.6.6-1l.1-20.2zM86.4 66.1L48.7 44.5V26.8l37.6 21.6c.1 1.6.1 16.2.1 17.7zM63.7 16.8C78 8.4 73 11.3 74.1 10.7v12.1l-10.4-6zm-.9-13.9L73 8.7c-1.2.7 4.5-2.6-12.1 7.1-.7.4-.8 1.5 0 2l38.2 21.9-11.5 6.8-39.4-22.6c-.3-.2-.8-.2-1.1 0l-13.3 7.8-10.2-5.9L62.8 2.9zM22.5 27.8l10.2 5.9v17.6l-10.2-5.9V27.8zM35 33.6l11.5-6.8v17.6L35 51.2c-.1-1.4 0-15.3 0-17.6zm53.6 32.5V48.5c1.6-.9-4.9 2.9 11.5-6.7v17.6l-11.5 6.7z"/></g></svg>